<?xml version="1.0" encoding="UTF-8" standalone="no"?>
<!DOCTYPE svg PUBLIC "-//W3C//DTD SVG 1.1//EN" "http://www.w3.org/Graphics/SVG/1.1/DTD/svg11.dtd">
<svg width="100%" height="100%" viewBox="0 0 24803 8267" version="1.1" xmlns="http://www.w3.org/2000/svg" xmlns:xlink="http://www.w3.org/1999/xlink" xml:space="preserve" xmlns:serif="http://www.serif.com/" style="fill-rule:evenodd;clip-rule:evenodd;stroke-linejoin:round;stroke-miterlimit:2;">
    <g transform="matrix(4.16667,0,0,4.16667,0,728.267)">
        <g id="Livello-1" serif:id="Livello 1">
            <g>
                <g transform="matrix(1.48377,0,0,1.48377,1355.38,923.43)">
                    <path d="M0,-474.39L83.357,-474.39L83.357,-75.902L332.751,-75.902L332.751,0L0,0L0,-474.39Z" style="fill:white;fill-rule:nonzero;"/>
                </g>
                <g transform="matrix(1.48377,0,0,1.48377,2404.16,494.059)">
                    <path d="M0,100.977L-82.002,-88.779L-163.326,100.977L0,100.977ZM-119.276,-188.401L-42.018,-188.401L166.713,289.378L78.613,289.378L30.496,174.846L-193.822,174.846L-242.617,289.378L-328.008,289.378L-119.276,-188.401Z" style="fill:white;fill-rule:nonzero;"/>
                </g>
                <g transform="matrix(1.48377,0,0,1.48377,3378.53,574.505)">
                    <path d="M0,-4.068C59.637,-4.068 97.589,-35.242 97.589,-83.358L97.589,-84.714C97.589,-135.541 60.993,-163.327 -0.677,-163.327L-121.986,-163.327L-121.986,-4.068L0,-4.068ZM-205.343,-239.229L6.099,-239.229C65.737,-239.229 112.499,-221.609 142.994,-191.791C168.07,-166.038 182.302,-130.798 182.302,-89.458L182.302,-88.103C182.302,-10.167 135.54,36.594 69.803,55.57L197.888,235.161L98.944,235.161L-17.62,69.802L-121.986,69.802L-121.986,235.161L-205.343,235.161L-205.343,-239.229Z" style="fill:white;fill-rule:nonzero;"/>
                </g>
                <g transform="matrix(1.48377,0,0,1.48377,4376.04,569.476)">
                    <path d="M0,2.71L0,1.355C0,-90.812 -67.092,-167.392 -161.292,-167.392C-255.493,-167.392 -321.23,-92.167 -321.23,-0L-321.23,1.355C-321.23,93.522 -254.137,169.425 -159.937,169.425C-65.736,169.425 0,94.877 0,2.71M-408.653,2.71L-408.653,1.355C-408.653,-132.152 -305.642,-243.973 -159.937,-243.973C-14.232,-243.973 87.424,-133.508 87.424,-0L87.424,1.355C87.424,134.862 -15.587,246.683 -161.292,246.683C-306.998,246.683 -408.653,136.218 -408.653,2.71" style="fill:white;fill-rule:nonzero;"/>
                </g>
                <g transform="matrix(1.48377,0,0,1.48377,4603.3,322.11)">
                    <path d="M0,336.139L50.151,276.501C95.556,315.808 141.639,338.172 199.922,338.172C251.427,338.172 283.957,313.775 283.957,278.534L283.957,277.179C283.957,243.294 264.981,224.997 176.88,204.666C75.904,180.268 18.976,150.449 18.976,63.026L18.976,61.67C18.976,-19.654 86.746,-75.902 180.947,-75.902C250.072,-75.902 304.966,-54.894 353.082,-16.265L308.354,46.761C265.659,14.909 222.963,-2.033 179.591,-2.033C130.797,-2.033 102.334,23.042 102.334,54.216L102.334,55.571C102.334,92.167 124.019,108.432 215.509,130.118C315.809,154.515 367.314,190.434 367.314,269.047L367.314,270.402C367.314,359.181 297.51,412.041 197.889,412.041C125.375,412.041 56.927,386.967 0,336.139" style="fill:white;fill-rule:nonzero;"/>
                </g>
                <g transform="matrix(1.48377,0,0,1.48377,5705.39,494.059)">
                    <path d="M0,100.977L-82.002,-88.779L-163.326,100.977L0,100.977ZM-119.276,-188.401L-42.018,-188.401L166.713,289.378L78.613,289.378L30.496,174.846L-193.822,174.846L-242.617,289.378L-328.007,289.378L-119.276,-188.401Z" style="fill:white;fill-rule:nonzero;"/>
                </g>
                <g transform="matrix(1.48377,0,0,1.48377,1460.25,1356.5)">
                    <path d="M0,-161.241C-9.585,-161.241 -18.243,-159.362 -25.975,-155.606C-33.709,-151.848 -40.326,-146.482 -45.824,-139.513C-51.325,-132.543 -55.573,-124.076 -58.567,-114.11C-61.563,-104.145 -63.059,-93.008 -63.059,-80.702C-63.059,-68.393 -61.589,-57.284 -58.649,-47.375C-55.708,-37.463 -51.516,-28.996 -46.069,-21.972C-40.624,-14.947 -34.008,-9.528 -26.22,-5.716C-18.435,-1.903 -9.695,0.001 0,0.001C9.582,0.001 18.241,-1.903 25.975,-5.716C33.707,-9.528 40.324,-14.947 45.824,-21.972C51.323,-28.996 55.544,-37.463 58.485,-47.375C61.426,-57.284 62.896,-68.393 62.896,-80.702C62.896,-93.008 61.426,-104.145 58.485,-114.11C55.544,-124.076 51.323,-132.543 45.824,-139.513C40.324,-146.482 33.707,-151.848 25.975,-155.606C18.241,-159.362 9.582,-161.241 0,-161.241M0,-204.534C17.424,-204.534 33.108,-201.646 47.05,-195.875C60.989,-190.101 72.862,-181.879 82.663,-171.206C92.465,-160.532 100.006,-147.544 105.29,-132.244C110.571,-116.941 113.213,-99.759 113.213,-80.702C113.213,-61.532 110.599,-44.297 105.371,-28.996C100.144,-13.693 92.629,-0.706 82.827,9.967C73.025,20.642 61.125,28.863 47.131,34.634C33.135,40.406 17.424,43.293 0,43.293C-17.536,43.293 -33.301,40.406 -47.294,34.634C-61.291,28.863 -73.188,20.642 -82.99,9.967C-92.792,-0.706 -100.335,-13.693 -105.616,-28.996C-110.9,-44.297 -113.539,-61.532 -113.539,-80.702C-113.539,-99.759 -110.872,-116.941 -105.535,-132.244C-100.2,-147.544 -92.603,-160.559 -82.745,-171.289C-72.889,-182.015 -60.964,-190.238 -46.968,-195.956C-32.974,-201.675 -17.317,-204.534 0,-204.534" style="fill:white;fill-rule:nonzero;"/>
                </g>
                <g transform="matrix(1.48377,0,0,1.48377,1830.33,1124.28)">
                    <path d="M0,151.604L35.613,151.604C57.505,151.604 74.331,145.097 86.093,132.082C97.856,119.068 103.738,100.036 103.738,74.985C103.738,63.115 102.185,52.522 99.081,43.211C95.978,33.899 91.511,26.031 85.686,19.603C79.858,13.179 72.723,8.306 64.285,4.982C55.843,1.662 46.286,0 35.613,0L0,0L0,151.604ZM43.455,-42.148C60.989,-42.148 76.618,-39.56 90.341,-34.388C104.064,-29.214 115.635,-21.646 125.056,-11.681C134.476,-1.715 141.663,10.483 146.621,24.913C151.575,39.346 154.054,55.764 154.054,74.168C154.054,93.338 151.604,110.353 146.702,125.22C141.802,140.086 134.639,152.584 125.219,162.713C115.798,172.841 104.228,180.548 90.504,185.829C76.782,191.113 61.099,193.752 43.455,193.752L-49.337,193.752L-49.337,-42.148L43.455,-42.148Z" style="fill:white;fill-rule:nonzero;"/>
                </g>
                <g transform="matrix(1.48377,0,0,1.48377,2340.52,1356.5)">
                    <path d="M0,-161.241C-9.584,-161.241 -18.243,-159.362 -25.975,-155.606C-33.709,-151.848 -40.325,-146.482 -45.824,-139.513C-51.324,-132.543 -55.572,-124.076 -58.567,-114.11C-61.563,-104.145 -63.059,-93.008 -63.059,-80.702C-63.059,-68.393 -61.589,-57.284 -58.648,-47.375C-55.707,-37.463 -51.516,-28.996 -46.069,-21.972C-40.624,-14.947 -34.008,-9.528 -26.22,-5.716C-18.435,-1.903 -9.695,0.001 0,0.001C9.583,0.001 18.242,-1.903 25.975,-5.716C33.708,-9.528 40.324,-14.947 45.825,-21.972C51.323,-28.996 55.545,-37.463 58.485,-47.375C61.426,-57.284 62.896,-68.393 62.896,-80.702C62.896,-93.008 61.426,-104.145 58.485,-114.11C55.545,-124.076 51.323,-132.543 45.825,-139.513C40.324,-146.482 33.708,-151.848 25.975,-155.606C18.242,-159.362 9.583,-161.241 0,-161.241M0,-204.534C17.424,-204.534 33.107,-201.646 47.05,-195.875C60.99,-190.101 72.862,-181.879 82.663,-171.206C92.466,-160.532 100.006,-147.544 105.29,-132.244C110.571,-116.941 113.213,-99.759 113.213,-80.702C113.213,-61.532 110.6,-44.297 105.372,-28.996C100.144,-13.693 92.629,-0.706 82.827,9.967C73.025,20.642 61.125,28.863 47.132,34.634C33.135,40.406 17.424,43.293 0,43.293C-17.536,43.293 -33.301,40.406 -47.294,34.634C-61.29,28.863 -73.188,20.642 -82.99,9.967C-92.792,-0.706 -100.334,-13.693 -105.616,-28.996C-110.9,-44.297 -113.539,-61.532 -113.539,-80.702C-113.539,-99.759 -110.872,-116.941 -105.534,-132.244C-100.199,-147.544 -92.603,-160.559 -82.745,-171.289C-72.889,-182.015 -60.963,-190.238 -46.967,-195.956C-32.974,-201.675 -17.316,-204.534 0,-204.534" style="fill:white;fill-rule:nonzero;"/>
                </g>
                <g transform="matrix(1.48377,0,0,1.48377,2637.4,1061.99)">
                    <path d="M0,235.737L0,0L41.168,0L149.644,146.866L152.585,146.866L152.585,0L199.798,0L199.798,235.737L158.956,235.737L50.154,88.218L47.213,88.218L47.213,235.737L0,235.737Z" style="fill:white;fill-rule:nonzero;"/>
                </g>
                <g transform="matrix(1.48377,0,0,1.48377,3163.11,1061.99)">
                    <path d="M0,235.737L0,42.148L-70.738,42.148L-70.738,0L120.074,0L120.074,42.148L49.336,42.148L49.336,235.737L0,235.737Z" style="fill:white;fill-rule:nonzero;"/>
                </g>
                <g transform="matrix(1.48377,0,0,1.48377,3618.52,1356.5)">
                    <path d="M0,-161.241C-9.585,-161.241 -18.244,-159.362 -25.975,-155.606C-33.71,-151.848 -40.325,-146.482 -45.824,-139.513C-51.324,-132.543 -55.572,-124.076 -58.567,-114.11C-61.563,-104.145 -63.059,-93.008 -63.059,-80.702C-63.059,-68.393 -61.589,-57.284 -58.648,-47.375C-55.708,-37.463 -51.516,-28.996 -46.069,-21.972C-40.625,-14.947 -34.008,-9.528 -26.219,-5.716C-18.434,-1.903 -9.695,0.001 0,0.001C9.583,0.001 18.241,-1.903 25.975,-5.716C33.707,-9.528 40.323,-14.947 45.824,-21.972C51.323,-28.996 55.545,-37.463 58.485,-47.375C61.426,-57.284 62.896,-68.393 62.896,-80.702C62.896,-93.008 61.426,-104.145 58.485,-114.11C55.545,-124.076 51.323,-132.543 45.824,-139.513C40.323,-146.482 33.707,-151.848 25.975,-155.606C18.241,-159.362 9.583,-161.241 0,-161.241M0,-204.534C17.424,-204.534 33.107,-201.646 47.05,-195.875C60.99,-190.101 72.861,-181.879 82.664,-171.206C92.466,-160.532 100.006,-147.544 105.29,-132.244C110.571,-116.941 113.213,-99.759 113.213,-80.702C113.213,-61.532 110.599,-44.297 105.371,-28.996C100.143,-13.693 92.629,-0.706 82.827,9.967C73.025,20.642 61.125,28.863 47.132,34.634C33.136,40.406 17.424,43.293 0,43.293C-17.536,43.293 -33.301,40.406 -47.294,34.634C-61.29,28.863 -73.188,20.642 -82.99,9.967C-92.792,-0.706 -100.335,-13.693 -105.616,-28.996C-110.9,-44.297 -113.54,-61.532 -113.54,-80.702C-113.54,-99.759 -110.872,-116.941 -105.534,-132.244C-100.199,-147.544 -92.603,-160.559 -82.744,-171.289C-72.89,-182.015 -60.963,-190.238 -46.967,-195.956C-32.974,-201.675 -17.316,-204.534 0,-204.534" style="fill:white;fill-rule:nonzero;"/>
                </g>
                <g transform="matrix(1.48377,0,0,1.48377,-1439.89,184.324)">
                    <rect x="3609.24" y="591.508" width="49.336" height="235.737" style="fill:white;"/>
                </g>
                <g transform="matrix(1.48377,0,0,1.48377,4224.15,1201.85)">
                    <path d="M0,47.213L61.753,47.213L32.51,-45.253L29.57,-45.253L0,47.213ZM72.208,85.277L-10.619,85.277L-28.752,141.475L-78.252,141.475L3.594,-94.262L61.589,-94.262L143.436,141.475L90.014,141.475L72.208,85.277Z" style="fill:white;fill-rule:nonzero;"/>
                </g>
                <g transform="matrix(1.48377,0,0,1.48377,4641.02,1061.99)">
                    <path d="M0,235.737L0,42.148L-70.737,42.148L-70.737,0L120.074,0L120.074,42.148L49.337,42.148L49.337,235.737L0,235.737Z" style="fill:white;fill-rule:nonzero;"/>
                </g>
                <g transform="matrix(1.48377,0,0,1.48377,5016.68,1245)">
                    <path d="M0,-10.947L43.292,-10.947C55.815,-10.947 65.51,-14.104 72.371,-20.422C79.233,-26.738 82.663,-35.614 82.663,-47.051C82.663,-52.605 81.737,-57.641 79.887,-62.162C78.033,-66.68 75.394,-70.519 71.963,-73.68C68.532,-76.837 64.338,-79.259 59.383,-80.949C54.427,-82.636 48.901,-83.482 42.802,-83.482L0,-83.482L0,-10.947ZM0,112.395L-49.336,112.395L-49.336,-123.342L49.664,-123.342C62.623,-123.342 74.275,-121.599 84.625,-118.115C94.969,-114.628 103.737,-109.62 110.926,-103.085C118.114,-96.55 123.64,-88.627 127.507,-79.315C131.372,-70.004 133.307,-59.466 133.307,-47.704C133.307,-40.189 132.352,-32.973 130.448,-26.058C128.541,-19.141 125.764,-12.769 122.116,-6.944C118.466,-1.116 113.974,4.029 108.639,8.494C103.301,12.961 97.257,16.555 90.505,19.276L140.168,112.395L84.296,112.395L40.352,26.955L0,26.955L0,112.395Z" style="fill:white;fill-rule:nonzero;"/>
                </g>
                <g transform="matrix(1.48377,0,0,1.48377,-1439.89,184.324)">
                    <rect x="4574.57" y="591.508" width="49.336" height="235.737" style="fill:white;"/>
                </g>
                <g transform="matrix(1.48377,0,0,1.48377,5656.49,1201.85)">
                    <path d="M0,47.213L61.751,47.213L32.509,-45.253L29.568,-45.253L0,47.213ZM72.207,85.277L-10.619,85.277L-28.753,141.475L-78.252,141.475L3.593,-94.262L61.588,-94.262L143.435,141.475L90.014,141.475L72.207,85.277Z" style="fill:white;fill-rule:nonzero;"/>
                </g>
                <g transform="matrix(1.48377,0,0,1.48377,629.421,1181.69)">
                    <path d="M0,-33.478C17.653,19.189 32.875,165.47 64.253,165.47C104.845,165.47 138.335,111.346 160.053,63.35C177.009,25.876 197.507,-107.089 219.203,-198.948C135.872,-121.246 44.036,-75.439 -10.202,-53.057C-5.997,-47.417 -2.492,-40.921 0,-33.478" style="fill:white;fill-rule:nonzero;"/>
                </g>
                <g transform="matrix(1.48377,0,0,1.48377,201.616,1037.95)">
                    <path d="M0,160.218C21.719,208.216 55.208,262.34 95.803,262.34C127.178,262.34 142.401,116.059 160.053,63.392C162.553,55.933 166.078,49.448 170.3,43.815C116.05,21.431 24.186,-24.392 -59.159,-102.122C-37.458,-10.258 -16.958,122.739 0,160.218" style="fill:white;fill-rule:nonzero;"/>
                </g>
                <g transform="matrix(1.48377,0,0,1.48377,533.103,913.842)">
                    <path d="M0,-410.097C-92.026,-440.558 -195.381,-508.794 -287.319,-430.458C-399.677,-334.725 -355.782,-215.154 -319.985,-129.417C-206.867,23.116 -28.646,88.293 2.363,98.697C40.251,85.394 211.462,18.936 321.441,-129.216C336.594,-165.514 353.19,-207.776 358.825,-251.866C241.9,-268.803 94.939,-350.353 0,-410.097" style="fill:white;fill-rule:nonzero;"/>
                </g>
                <g transform="matrix(1.48377,0,0,1.48377,961.733,376.669)">
                    <path d="M0,-68.426C-74.506,-131.906 -156.505,-99.119 -233.903,-68.194C-150.623,-18.121 -26.388,47.856 71.243,63.48C67.597,18.158 48.227,-27.333 0,-68.426" style="fill:white;fill-rule:nonzero;"/>
                </g>
            </g>
        </g>
    </g>
</svg>
